<?xml version="1.0" encoding="UTF-8" standalone="no"?>
<!DOCTYPE svg PUBLIC "-//W3C//DTD SVG 1.1//EN" "http://www.w3.org/Graphics/SVG/1.1/DTD/svg11.dtd">
<svg version="1.1" xmlns="http://www.w3.org/2000/svg" xmlns:xlink="http://www.w3.org/1999/xlink" preserveAspectRatio="xMidYMid meet" viewBox="0 0 640 640" width="640" height="640"><defs><path d="M0 320C0 496.45 143.56 640 320 640C405.48 640 485.83 606.72 546.28 546.28C551.48 541.07 551.48 532.63 546.28 527.42C541.07 522.21 532.63 522.21 527.42 527.42C472.02 582.83 398.36 613.33 320 613.33C158.26 613.33 26.67 481.75 26.67 320C26.67 158.26 158.26 26.67 320 26.67C481.75 26.67 613.33 158.26 613.33 320C613.33 322.67 613.33 344 613.33 346.67C613.33 390.78 577.45 426.67 533.33 426.67C489.22 426.67 453.33 390.78 453.33 346.67C453.33 334.67 453.33 238.67 453.33 226.67C453.33 219.3 447.37 213.33 440 213.33C432.63 213.33 426.67 219.3 426.67 226.67C426.67 228.08 426.67 239.41 426.67 240.82C402.34 208.15 363.77 186.67 320 186.67C246.48 186.67 186.67 246.48 186.67 320C186.67 393.52 246.49 453.33 320 453.33C369.04 453.33 411.51 426.42 434.67 386.88C450.59 425.79 488.76 453.33 533.33 453.33C592.15 453.33 640 405.48 640 346.67C640 344 640 322.67 640 320C640 143.56 496.45 0 320 0C143.56 0 0 143.56 0 320ZM213.33 320C213.33 261.18 261.19 213.33 320 213.33C378.82 213.33 426.67 261.19 426.67 320C426.67 378.82 378.82 426.67 320 426.67C261.19 426.67 213.33 378.82 213.33 320Z" id="b5S37ZzfE"></path></defs><g><g><g><use xlink:href="#b5S37ZzfE" opacity="1" fill="#ffb800" fill-opacity="0.7"></use><g><use xlink:href="#b5S37ZzfE" opacity="1" fill-opacity="0" stroke="#000000" stroke-width="1" stroke-opacity="0"></use></g></g></g></g></svg>