<?xml version="1.0" encoding="UTF-8" standalone="no"?>
<!DOCTYPE svg PUBLIC "-//W3C//DTD SVG 1.1//EN" "http://www.w3.org/Graphics/SVG/1.1/DTD/svg11.dtd">
<svg version="1.1" xmlns="http://www.w3.org/2000/svg" xmlns:xlink="http://www.w3.org/1999/xlink" preserveAspectRatio="xMidYMid meet" viewBox="0 0 640 640" width="640" height="640"><defs><path d="M90.94 90.94C-33.36 219.65 -29.79 424.75 98.91 549.05C224.46 670.31 423.5 670.31 549.05 549.05C673.36 420.35 669.79 215.25 541.09 90.94C415.54 -30.31 216.5 -30.31 90.94 90.94ZM533.72 533.72C415.58 651.75 224.12 651.67 106.09 533.52C-11.95 415.38 -11.86 223.93 106.28 105.89C224.42 -12.14 415.88 -12.05 533.91 106.09C590.61 162.83 622.43 239.78 622.38 320C622.39 400.2 590.53 477.11 533.83 533.83C533.81 533.81 533.73 533.73 533.72 533.72Z" id="d4mIvfHQ7"></path><path d="M441.28 351.75C427.5 337.94 405.14 337.92 391.34 351.69C391.32 351.71 391.3 351.73 391.28 351.75C387.8 355.23 359.98 383.05 356.5 386.52C353.87 389.16 349.73 389.52 346.68 387.39C327.64 374.09 309.83 359.12 293.44 342.68C278.76 328.03 265.25 312.25 253.05 295.48C250.83 292.47 251.15 288.3 253.8 285.66C257.36 282.09 285.88 253.58 289.44 250.02C303.2 236.23 303.2 213.91 289.44 200.13C283.37 194.06 234.82 145.5 228.75 139.43C214.76 126.06 192.73 126.06 178.75 139.43C176.82 141.36 161.45 156.73 159.52 158.66C130.49 187.36 120.13 229.98 132.74 268.81C142.15 297.22 155.45 324.18 172.27 348.94C187.4 371.64 204.77 392.76 224.1 412.01C245.13 433.18 268.41 451.98 293.54 468.06C321.17 486.09 351.5 499.58 383.39 508.02C391.59 510.04 400 511.05 408.45 511.04C437.39 510.86 465.08 499.21 485.45 478.64C487.1 476.99 500.32 463.77 501.97 462.12C515.73 448.33 515.73 426.01 501.97 412.23C489.83 400.13 447.35 357.8 441.28 351.75ZM486.63 447.43C486.64 447.41 486.68 447.3 486.74 447.11C476.83 457.02 471.32 462.53 470.22 463.63C448.99 485.13 418.07 493.97 388.68 486.96C359.07 479.03 330.93 466.42 305.31 449.59C281.51 434.38 259.46 416.6 239.54 396.57C221.22 378.38 204.76 358.41 190.41 336.96C174.7 313.87 162.27 288.72 153.47 262.22C143.38 231.1 151.74 196.94 175.07 173.99C176.99 172.07 192.37 156.69 194.29 154.77C199.64 149.4 208.32 149.38 213.69 154.73C213.7 154.74 213.72 154.76 213.73 154.77C219.8 160.84 268.36 209.39 274.42 215.46C279.79 220.81 279.81 229.49 274.47 234.86C274.45 234.87 274.44 234.89 274.42 234.9C270.86 238.47 242.35 266.98 238.79 270.54C228.56 280.65 227.28 296.73 235.76 308.34C248.65 326.03 262.92 342.67 278.42 358.12C295.71 375.48 314.5 391.28 334.58 405.32C346.18 413.41 361.91 412.04 371.94 402.08C375.39 398.58 402.95 370.59 406.39 367.09C411.74 361.72 420.42 361.7 425.79 367.04C425.8 367.06 425.82 367.07 425.83 367.09C431.91 373.18 480.55 421.9 486.63 428C492 433.34 492.02 442.02 486.68 447.39C486.66 447.4 486.65 447.42 486.63 447.43Z" id="byvIeHuRn"></path></defs><g><g><g><use xlink:href="#d4mIvfHQ7" opacity="1" fill="#ffb803" fill-opacity="0.7"></use><g><use xlink:href="#d4mIvfHQ7" opacity="1" fill-opacity="0" stroke="#000000" stroke-width="1" stroke-opacity="0"></use></g></g><g><use xlink:href="#byvIeHuRn" opacity="1" fill="#ffb803" fill-opacity="0.7"></use><g><use xlink:href="#byvIeHuRn" opacity="1" fill-opacity="0" stroke="#000000" stroke-width="1" stroke-opacity="0"></use></g></g></g></g></svg>