<svg width="224" height="234" viewBox="0 0 224 234" fill="none" xmlns="http://www.w3.org/2000/svg">
<path d="M105.537 167.862C108.429 163.16 111.623 158.655 115.098 154.375V142.594C104.5 145.134 103.124 145.944 99.7578 145.944C96.1629 145.925 92.6683 144.746 89.7851 142.58C86.9018 140.413 84.7811 137.373 83.7331 133.903C83.4971 133.11 83.5461 132.258 83.8717 131.498C84.1973 130.738 84.7785 130.118 85.5128 129.748L93.3248 125.809C92.1322 122.914 90.9867 121.017 83.3329 122.13C82.5068 122.249 81.6656 122.066 80.9622 121.613C80.2588 121.16 79.74 120.467 79.5001 119.66L77.2966 112.259C67.9894 106.08 65.9724 106.198 65.4998 103.561C65.0151 100.861 66.7416 100.652 76.7683 87.038V60.7477H170.846C170.16 154.586 172.468 153.313 169.055 155.227C167.753 155.957 136.858 173.095 108.507 173.245C107.883 173.248 107.27 173.082 106.731 172.764C106.193 172.447 105.749 171.989 105.445 171.439C105.142 170.889 104.99 170.267 105.007 169.638C105.023 169.008 105.206 168.395 105.537 167.862Z" fill="#FBB882"/>
<path d="M115.11 143.04V154.375C111.635 158.655 108.441 163.16 105.55 167.862C105.219 168.395 105.036 169.008 105.02 169.638C105.004 170.267 105.155 170.889 105.459 171.438C105.762 171.988 106.207 172.446 106.745 172.763C107.284 173.081 107.897 173.247 108.521 173.243C136.872 173.095 167.767 155.957 169.068 155.226C169.611 154.921 170.064 154.476 170.379 153.936C170.694 153.396 170.86 152.781 170.86 152.154V76.8106C166.962 91.3052 159.945 104.755 150.309 116.202C140.674 127.649 128.655 136.813 115.11 143.04Z" fill="#E5B882"/>
<path d="M195.168 229.498H87.3088C86.2491 204.423 96.7837 181.987 105.551 167.863C115.11 169.732 165.023 159.185 171.295 150.045C188.282 169.732 195.638 195.632 195.25 216.86L195.168 229.498Z" fill="#0F3173"/>
<path d="M182.922 167.033C174.534 184.698 160.745 199.18 143.587 208.345C126.429 217.511 106.808 220.876 87.612 217.945C87.2507 221.785 87.1488 225.644 87.3072 229.498H195.168L195.25 216.86C195.534 201.329 191.666 183.302 182.922 167.033Z" fill="#295BBC"/>
<path d="M167.375 137.462C166.957 137.462 166.542 137.386 166.15 137.237C136.016 125.817 136.016 95.113 136.016 76.7685C136.016 75.5108 135.741 73.7609 134.428 72.5669C133.272 71.5157 131.489 71.0574 129.408 71.2758C129.288 71.2885 129.168 71.2948 129.047 71.2947H96.54C86.2994 71.1211 77.93 67.5321 71.6637 60.6265C57.6796 45.2149 59.3765 18.7972 59.4558 17.681C59.5038 16.8977 59.8076 16.1525 60.3198 15.5619C60.832 14.9713 61.5238 14.5686 62.2869 14.4167C63.0352 14.269 63.8109 14.3781 64.4906 14.7267C65.1703 15.0753 65.715 15.6432 66.0378 16.3402C66.2778 16.766 68.8784 21.0467 76.3324 21.0467C84.5572 21.0467 96.577 17.4814 109.303 13.7079C123.32 9.55108 137.813 5.25015 150.441 4.58526C164.82 3.8294 174.624 8.23887 179.619 17.7025C187.446 18.7572 193.867 23.9985 197.85 32.6575C203.033 43.9286 203.646 59.7617 199.57 77.2405C194.997 96.8612 184.811 117.22 170.117 136.116C169.791 136.536 169.375 136.875 168.899 137.108C168.424 137.341 167.903 137.462 167.375 137.462Z" fill="#84491F"/>
<path d="M197.85 32.6574C195.406 27.3445 192.041 23.3252 187.999 20.7632C186.749 37.0315 181.439 52.716 172.564 66.3562C163.688 79.9965 151.536 91.1489 137.239 98.7749C139.575 113.938 146.372 129.741 166.15 137.238C166.844 137.5 167.602 137.533 168.316 137.332C169.029 137.13 169.66 136.704 170.117 136.116C184.811 117.22 194.996 96.8611 199.57 77.2404C203.646 59.7616 203.034 43.9285 197.85 32.6574Z" fill="#683A0F"/>
<path d="M142.985 109.337H129.047V81.2117H136.34C139.294 65.9412 160.407 67.6054 160.407 88.243C160.407 100.11 154.483 109.337 142.985 109.337V109.337Z" fill="#E5B882"/>
<path d="M144.727 39.654C151.462 39.654 156.922 34.145 156.922 27.3493C156.922 20.5536 151.462 15.0446 144.727 15.0446C137.992 15.0446 132.532 20.5536 132.532 27.3493C132.532 34.145 137.992 39.654 144.727 39.654Z" fill="#AC622C"/>
<path d="M165.633 46.6852C168.52 46.6852 170.86 44.3242 170.86 41.4118C170.86 38.4993 168.52 36.1384 165.633 36.1384C162.747 36.1384 160.407 38.4993 160.407 41.4118C160.407 44.3242 162.747 46.6852 165.633 46.6852Z" fill="#AC622C"/>
<path d="M174.344 229.498H125.563V198.231C125.563 184.726 136.19 173.456 149.576 173.251C152.809 173.204 156.02 173.805 159.021 175.021C162.022 176.236 164.754 178.04 167.058 180.329C169.363 182.619 171.193 185.347 172.444 188.356C173.695 191.365 174.341 194.594 174.344 197.857V229.498Z" fill="#295BBC"/>
<path d="M153.435 72.8393C153.435 72.9105 153.438 72.9812 153.438 73.0524C153.439 80.6062 151.343 88.0093 147.387 94.4225C143.431 100.836 137.773 106.002 131.056 109.337H142.985C154.483 109.337 160.407 100.108 160.407 88.243C160.407 80.4146 157.368 75.3187 153.435 72.8393Z" fill="#E5B882"/>
<path d="M146.469 201.373C150.318 201.373 153.438 198.225 153.438 194.341C153.438 190.458 150.318 187.31 146.469 187.31C142.621 187.31 139.5 190.458 139.5 194.341C139.5 198.225 142.621 201.373 146.469 201.373Z" fill="#759AE1"/>
<path d="M156.922 208.404C158.847 208.404 160.407 206.83 160.407 204.888C160.407 202.947 158.847 201.373 156.922 201.373C154.998 201.373 153.438 202.947 153.438 204.888C153.438 206.83 154.998 208.404 156.922 208.404Z" fill="#759AE1"/>
<path d="M66.3156 124.029H59.3521C58.4279 124.029 57.5417 123.659 56.8882 122.999C56.2348 122.34 55.8677 121.446 55.8677 120.513C55.8677 119.581 56.2348 118.687 56.8882 118.027C57.5417 117.368 58.4279 116.998 59.3521 116.998H66.3156C67.2397 116.998 68.126 117.368 68.7794 118.027C69.4328 118.687 69.8 119.581 69.8 120.513C69.8 121.446 69.4328 122.34 68.7794 122.999C68.126 123.659 67.2397 124.029 66.3156 124.029Z" fill="#C64939"/>
<path d="M80.2529 155.67C79.3288 155.67 78.4425 155.299 77.7891 154.64C77.1357 153.981 76.7686 153.086 76.7686 152.154V145.123C76.7686 144.19 77.1357 143.296 77.7891 142.637C78.4425 141.978 79.3288 141.607 80.2529 141.607C81.177 141.607 82.0633 141.978 82.7168 142.637C83.3702 143.296 83.7373 144.19 83.7373 145.123V152.154C83.7373 153.086 83.3702 153.981 82.7168 154.64C82.0633 155.299 81.177 155.67 80.2529 155.67Z" fill="#C64939"/>
<path d="M62.8312 145.123C62.142 145.123 61.4683 144.917 60.8953 144.53C60.3223 144.144 59.8757 143.595 59.6119 142.952C59.3482 142.31 59.2792 141.603 59.4136 140.921C59.5481 140.239 59.88 139.613 60.3673 139.121L67.336 132.09C67.9895 131.43 68.8758 131.06 69.8 131.06C70.7242 131.06 71.6105 131.43 72.264 132.09C72.9175 132.749 73.2847 133.643 73.2848 134.576C73.2848 135.508 72.9177 136.402 72.2642 137.062L65.2955 144.093C64.9722 144.42 64.5881 144.679 64.1652 144.856C63.7422 145.033 63.2889 145.123 62.8312 145.123V145.123Z" fill="#C64939"/>
<path d="M31.477 205.289V229.498H64.6626C64.1748 223.468 63.5903 215.774 62.9248 205.914C75.8418 187.624 72.877 169.611 73.2908 166.216C73.2908 163.419 72.1895 160.737 70.2292 158.759C68.2688 156.781 65.61 155.67 62.8377 155.67C60.0653 155.67 57.4065 156.781 55.4462 158.759C53.4859 160.737 52.3846 163.419 52.3846 166.216V174.15C52.3846 174.771 52.1658 175.371 51.7673 175.844C51.3688 176.316 50.8165 176.631 50.2093 176.73C49.6022 176.829 48.9798 176.708 48.4535 176.386C47.9272 176.065 47.5315 175.565 47.337 174.977L42.0721 159.045L46.259 142.145C49.1946 130.303 33.9583 123.747 31.6991 129.826C20.9198 159.411 20.6894 158.123 21.1132 159.976L31.477 205.289Z" fill="#FBB882"/>
<path d="M73.2895 166.216C73.2895 166.138 73.2852 166.06 73.2834 165.982C65.0345 184.363 50.0513 198.806 31.4771 206.283V229.498H64.6627C64.1749 223.468 63.5904 215.774 62.9248 205.914C75.8419 187.624 72.8771 169.611 73.2895 166.216Z" fill="#E5B882"/>
</svg>
