<svg width="107" height="112" viewBox="0 0 107 112" fill="none" xmlns="http://www.w3.org/2000/svg">
<g filter="url(#filter0_dd)">
<ellipse cx="53.0422" cy="55.3051" rx="48.966" ry="48.6949" fill="#EA0000"/>
<path d="M100.008 55.3051C100.008 81.0836 78.9913 102 53.0422 102C27.0931 102 6.07617 81.0836 6.07617 55.3051C6.07617 29.5267 27.0931 8.61023 53.0422 8.61023C78.9913 8.61023 100.008 29.5267 100.008 55.3051Z" stroke="#C00303" stroke-opacity="0.5" stroke-width="4"/>
</g>
<rect width="4.56545" height="10.845" transform="matrix(-0.227635 -0.973746 0.974301 -0.22525 10.3853 66.2704)" fill="#EDB900"/>
<ellipse rx="3.52785" ry="3.75403" transform="matrix(-0.227635 -0.973746 0.974301 -0.22525 9.86523 64.0475)" fill="#EDB900"/>
<rect width="4.53872" height="10.6839" transform="matrix(-0.933203 -0.35935 0.362837 -0.931853 42.6924 98.6501)" fill="#EDB900"/>
<ellipse rx="3.50719" ry="3.69829" transform="matrix(-0.933203 -0.35935 0.362837 -0.931853 40.5743 97.8346)" fill="#EDB900"/>
<rect width="4.86634" height="11.4769" transform="matrix(0.837502 0.546434 -0.550692 0.834708 76.2041 16.3802)" fill="#EDB900"/>
<ellipse rx="3.76035" ry="3.97276" transform="matrix(0.837502 0.546434 -0.550692 0.834708 78.2423 17.7099)" fill="#EDB900"/>
<rect x="51.0474" y="8.81348" width="4.87445" height="11.4576" fill="#EA8004"/>
<ellipse cx="53.4849" cy="8.81351" rx="3.76662" ry="3.9661" fill="#EA8004"/>
<rect width="4.84748" height="11.5214" transform="matrix(-0.0302868 0.999541 -0.999551 -0.0299527 99.9736 56.3107)" fill="#EA8004"/>
<ellipse rx="3.74578" ry="3.98816" transform="matrix(-0.0302868 0.999541 -0.999551 -0.0299527 99.9002 58.7333)" fill="#EA8004"/>
<rect width="4.46655" height="9.8865" transform="matrix(0.467265 0.884117 -0.886245 0.463218 91.8408 34.8318)" fill="#EDB900"/>
<ellipse rx="3.45143" ry="3.42225" transform="matrix(0.467265 0.884117 -0.886245 0.463218 92.8845 36.8061)" fill="#EDB900"/>
<rect width="4.14881" height="8.93337" transform="matrix(-0.92717 0.374641 -0.378228 -0.925712 68.1846 95.0664)" fill="#EA8004"/>
<ellipse rx="3.2059" ry="3.09232" transform="matrix(-0.92717 0.374641 -0.378228 -0.925712 66.2613 95.8436)" fill="#EA8004"/>
<rect width="4.85223" height="11.5102" transform="matrix(0.421997 -0.906597 0.908376 0.418155 8.17773 40.181)" fill="#EA8004"/>
<ellipse rx="3.74945" ry="3.98429" transform="matrix(0.421997 -0.906597 0.908376 0.418155 9.20149 37.9815)" fill="#EA8004"/>
<rect width="4.00303" height="9.19195" transform="matrix(0.704997 -0.70921 0.713113 0.701049 19.7178 27.4041)" fill="#EDB900"/>
<ellipse rx="3.09325" ry="3.18183" transform="matrix(0.704997 -0.70921 0.713113 0.701049 21.1284 25.9845)" fill="#EDB900"/>
<rect width="4.86076" height="11.4901" transform="matrix(-0.703557 -0.710639 0.714534 -0.699601 20.5757 89.9941)" fill="#EA8004"/>
<ellipse rx="3.75604" ry="3.97733" transform="matrix(-0.703557 -0.710639 0.714534 -0.699601 18.8659 88.267)" fill="#EA8004"/>
<rect width="4.85761" height="11.4975" transform="matrix(-0.614995 0.788531 -0.791827 -0.610746 88.3262 80.7787)" fill="#EDB900"/>
<ellipse rx="3.75361" ry="3.9799" transform="matrix(-0.614995 0.788531 -0.791827 -0.610746 86.8321 82.6938)" fill="#EDB900"/>
<ellipse cx="53.2631" cy="55.0847" rx="38.9956" ry="38.7797" fill="#FFB800"/>
<path d="M90.2587 55.0847C90.2587 75.3871 73.7057 91.8644 53.2631 91.8644C32.8206 91.8644 16.2676 75.3871 16.2676 55.0847C16.2676 34.7823 32.8206 18.3051 53.2631 18.3051C73.7057 18.3051 90.2587 34.7823 90.2587 55.0847Z" stroke="#EA8004" stroke-opacity="0.6" stroke-width="4"/>
<path d="M26.6359 39.1682C25.9234 37.9492 27.3175 35.8214 29.7497 34.4156C32.1819 33.0098 34.9758 32.7171 35.6882 33.9361C36.4007 35.1551 33.4719 35.2171 31.0397 36.6229C28.6075 38.0286 27.3483 40.3872 26.6359 39.1682Z" fill="#040101"/>
<path d="M53.5035 27.3126C53.3709 25.9088 55.5338 24.5586 58.3346 24.2969C61.1354 24.0351 63.7952 24.9346 63.9279 26.3384C64.0605 27.7422 61.3756 26.5769 58.5748 26.8387C55.774 27.1004 53.6362 28.7164 53.5035 27.3126Z" fill="#040101"/>
<ellipse rx="7.30739" ry="7.27549" transform="matrix(0.946089 -0.323907 0.327138 0.944976 36.4122 45.8183)" fill="#040101"/>
<ellipse rx="3.98585" ry="2.20469" transform="matrix(0.946089 -0.323907 0.327138 0.944976 35.5396 42.6216)" fill="#FFF1F1"/>
<path d="M41.4421 48.1637C41.8405 49.3143 40.4751 50.8251 38.3924 51.5382C36.3098 52.2512 34.089 51.9682 33.6907 50.8175C33.2924 49.6669 35.5885 50.1678 37.6712 49.4548C39.7538 48.7417 41.0438 47.0131 41.4421 48.1637Z" fill="#ABA8A8"/>
<ellipse rx="7.30739" ry="7.27549" transform="matrix(0.946089 -0.323907 0.327138 0.944976 60.3409 37.0048)" fill="#040101"/>
<ellipse rx="3.98585" ry="2.20469" transform="matrix(0.946089 -0.323907 0.327138 0.944976 59.4688 33.8081)" fill="#FFF1F1"/>
<path d="M65.3709 39.3501C65.7692 40.5008 64.4038 42.0115 62.3211 42.7246C60.2385 43.4376 58.0177 43.1546 57.6194 42.0039C57.2211 40.8533 59.5172 41.3542 61.5999 40.6412C63.6825 39.9281 64.9725 38.1995 65.3709 39.3501Z" fill="#ABA8A8"/>
<path d="M49.2237 61.35C47.5315 58.2553 49.0312 54.3916 52.3668 53.2529V53.2529C55.6239 52.1409 59.1238 54.1501 59.8056 57.5232L59.8754 57.8688C60.2525 59.7347 59.1701 61.583 57.358 62.1673L53.7418 63.3334C52.0492 63.8791 50.2043 63.1432 49.3505 61.5818L49.2237 61.35Z" fill="#040101"/>
<path d="M97.8659 45.9454C99.262 50.17 82.6533 61.8141 59.1334 69.5009C35.6134 77.1876 13.1826 78.3023 11.7865 74.0778C10.3904 69.8532 32.3634 67.3529 55.8833 59.6661C79.4033 51.9793 96.4698 41.7208 97.8659 45.9454Z" fill="#EA0000"/>
<path d="M96.3799 46.4844C96.4052 46.4887 96.427 46.4931 96.4457 46.4974C96.4446 46.5205 96.4419 46.5489 96.4364 46.5832C96.4152 46.7164 96.3561 46.9157 96.2216 47.1867C95.948 47.7374 95.4328 48.4448 94.6233 49.2907C93.0111 50.9753 90.4414 52.9931 87.0338 55.1605C80.2353 59.4847 70.3196 64.2669 58.6627 68.0766C47.0053 71.8865 35.6331 74.0614 27.0372 74.7625C22.7299 75.1139 19.1821 75.0898 16.6685 74.7415C15.4051 74.5665 14.4816 74.3197 13.8741 74.0448C13.5584 73.9019 13.3882 73.78 13.2991 73.7002C13.3145 73.6844 13.3323 73.6668 13.3527 73.6474C13.6665 73.3492 14.3 72.9592 15.3717 72.5036C17.4826 71.6061 20.7258 70.6822 24.868 69.6219C26.6571 69.1639 28.601 68.6837 30.6697 68.1727C38.0875 66.3403 47.1101 64.1114 56.354 61.0903C65.7591 58.0166 74.1536 54.5281 80.8845 51.7309C82.6169 51.0109 84.2392 50.3367 85.7401 49.7272C89.4465 48.2221 92.3344 47.1442 94.3591 46.6878C95.3876 46.456 96.0286 46.4253 96.3799 46.4844ZM13.2063 73.8124C13.2058 73.8125 13.2074 73.809 13.2122 73.8016C13.2091 73.8086 13.2067 73.8123 13.2063 73.8124Z" stroke="#C00303" stroke-opacity="0.4" stroke-width="3"/>
<path d="M97.7343 45.5475C99.1868 49.943 82.6532 61.8141 59.1332 69.5008C35.6133 77.1876 13.1074 78.0754 11.6549 73.6799C10.2023 69.2844 32.2317 66.955 55.7517 59.2682C79.2716 51.5814 96.2817 41.152 97.7343 45.5475Z" fill="#EA0000"/>
<path d="M96.2076 46.0331C96.2562 46.0421 96.2921 46.0516 96.3177 46.0598C96.3294 46.1589 96.3216 46.4099 96.0989 46.8816C95.8294 47.4523 95.32 48.1797 94.519 49.0452C92.9226 50.77 90.3697 52.8289 86.9769 55.0334C80.2078 59.4318 70.3151 64.2683 58.6626 68.0766C47.0094 71.8851 35.6231 74.0027 27.0062 74.6266C22.6884 74.9392 19.1294 74.8718 16.6048 74.4814C15.3365 74.2852 14.4065 74.0187 13.7913 73.7256C13.3817 73.5304 13.2032 73.369 13.129 73.2821C13.1508 73.2567 13.1807 73.2243 13.2216 73.1842C13.5284 72.8834 14.1534 72.4898 15.221 72.0315C17.3246 71.1285 20.565 70.2106 24.7114 69.1609C26.5012 68.7077 28.4464 68.2333 30.5168 67.7284C37.9418 65.9176 46.9761 63.7143 56.2223 60.6924C65.6299 57.6179 74.0183 54.1009 80.742 51.2819C82.4723 50.5565 84.0924 49.8772 85.5912 49.2636C89.2947 47.7475 92.1765 46.6667 94.1981 46.219C95.2244 45.9918 95.8604 45.9688 96.2076 46.0331ZM13.0761 73.3571C13.0752 73.3574 13.0771 73.352 13.0845 73.3403C13.0808 73.351 13.0771 73.3568 13.0761 73.3571Z" stroke="#C00303" stroke-opacity="0.4" stroke-width="3"/>
<path d="M90.2642 42.3051L97.9171 42.3051L99.6944 52.2854L92.7014 53.5423L91.8151 48.4745L90.2642 42.3051Z" fill="#EA0000"/>
<path d="M10.2793 70.7799L16.4428 68.3051L20.6929 76.8983L13.7633 79.3611L10.2793 70.7799Z" fill="#EA0000"/>
<rect width="3.00638" height="6.0041" transform="matrix(-0.888434 -0.460924 0.482539 -0.874853 38.8555 86.3606)" fill="#EA8004" fill-opacity="0.85"/>
<ellipse rx="2.32311" ry="2.44344" transform="matrix(-0.888434 -0.460924 0.482539 -0.874853 37.5199 85.6677)" fill="#EA8004" fill-opacity="0.85"/>
<rect width="3.04347" height="6.07547" transform="matrix(-0.574066 0.818586 -0.802632 -0.596786 82.9375 72.1755)" fill="#EA8004" fill-opacity="0.83"/>
<ellipse rx="2.35178" ry="2.47249" transform="matrix(-0.574066 0.818586 -0.802632 -0.596786 82.0639 73.4213)" fill="#EA8004" fill-opacity="0.83"/>
<rect width="3.09408" height="6.72754" transform="matrix(-0.940944 0.37565 -0.354701 -0.920562 63.5879 81.6573)" fill="#EA8004" fill-opacity="0.85"/>
<path d="M59.2937 82.3664C58.7268 80.8952 59.4244 79.2406 60.8516 78.6708C62.2789 78.101 63.8955 78.8317 64.4624 80.303C65.0292 81.7742 64.3317 83.4287 62.9044 83.9985C61.4772 84.5683 59.8606 83.8376 59.2937 82.3664Z" fill="#EA8004" fill-opacity="0.85"/>
<ellipse rx="3.65594" ry="1.20544" transform="matrix(0.978526 -0.206124 0.208326 0.978059 30.0429 62.1846)" fill="#EA8004"/>
<ellipse rx="4.20907" ry="1.8113" transform="matrix(0.985394 -0.170291 0.172136 0.985073 33.5609 57.4712)" fill="#EA8004"/>
<ellipse rx="3.44131" ry="1.36856" transform="matrix(0.96248 -0.271353 0.274156 0.961685 39.2391 60.9971)" fill="#EA8004"/>
<ellipse rx="3.49421" ry="1.79993" transform="matrix(0.941092 -0.338152 0.341489 0.939886 70.903 46.0597)" fill="#EA8004"/>
<ellipse rx="4.61778" ry="1.86248" transform="matrix(0.929806 -0.36805 0.371595 0.928395 65.7821 52.344)" fill="#EA8004"/>
<ellipse rx="2.74746" ry="1.25106" transform="matrix(0.923877 -0.382689 0.386327 0.922362 76.2257 48.0359)" fill="#EA8004"/>
<g filter="url(#filter1_dd)">
<path d="M19.5093 11.0203L31.2255 17.6482L32.7325 5.19529L42.4831 12.6891L44.5263 5.24729e-05L47.8405 12.9491C48.928 17.1978 46.7853 21.6005 42.7691 23.3697L39.2681 24.9119C35.5302 26.5585 31.1417 25.486 28.5795 22.2997L19.5093 11.0203Z" fill="#F9FE00" fill-opacity="0.89"/>
<path d="M32.7169 17.8316L33.9083 7.98747L41.568 13.8743L43.5671 15.4107L43.9664 12.9304L44.8623 7.36654L46.385 13.3157C47.2912 16.8562 45.5056 20.5251 42.1587 21.9994L38.6578 23.5417C35.5428 24.9138 31.8858 24.0201 29.7506 21.3648L25.5742 16.1712L30.4868 18.9503L32.4473 20.0594L32.7169 17.8316Z" stroke="#F9FE00" stroke-opacity="0.89" stroke-width="3"/>
</g>
<defs>
<filter id="filter0_dd" x="0.0761719" y="6.61023" width="105.932" height="105.39" filterUnits="userSpaceOnUse" color-interpolation-filters="sRGB">
<feFlood flood-opacity="0" result="BackgroundImageFix"/>
<feColorMatrix in="SourceAlpha" type="matrix" values="0 0 0 0 0 0 0 0 0 0 0 0 0 0 0 0 0 0 127 0"/>
<feOffset dy="4"/>
<feGaussianBlur stdDeviation="2"/>
<feColorMatrix type="matrix" values="0 0 0 0 0 0 0 0 0 0 0 0 0 0 0 0 0 0 0.25 0"/>
<feBlend mode="normal" in2="BackgroundImageFix" result="effect1_dropShadow"/>
<feColorMatrix in="SourceAlpha" type="matrix" values="0 0 0 0 0 0 0 0 0 0 0 0 0 0 0 0 0 0 127 0"/>
<feOffset dy="4"/>
<feGaussianBlur stdDeviation="2"/>
<feColorMatrix type="matrix" values="0 0 0 0 0 0 0 0 0 0 0 0 0 0 0 0 0 0 0.25 0"/>
<feBlend mode="normal" in2="effect1_dropShadow" result="effect2_dropShadow"/>
<feBlend mode="normal" in="SourceGraphic" in2="effect2_dropShadow" result="shape"/>
</filter>
<filter id="filter1_dd" x="15.5093" y="0" width="36.6127" height="33.6774" filterUnits="userSpaceOnUse" color-interpolation-filters="sRGB">
<feFlood flood-opacity="0" result="BackgroundImageFix"/>
<feColorMatrix in="SourceAlpha" type="matrix" values="0 0 0 0 0 0 0 0 0 0 0 0 0 0 0 0 0 0 127 0"/>
<feOffset dy="4"/>
<feGaussianBlur stdDeviation="2"/>
<feColorMatrix type="matrix" values="0 0 0 0 0 0 0 0 0 0 0 0 0 0 0 0 0 0 0.25 0"/>
<feBlend mode="normal" in2="BackgroundImageFix" result="effect1_dropShadow"/>
<feColorMatrix in="SourceAlpha" type="matrix" values="0 0 0 0 0 0 0 0 0 0 0 0 0 0 0 0 0 0 127 0"/>
<feOffset dy="4"/>
<feGaussianBlur stdDeviation="2"/>
<feColorMatrix type="matrix" values="0 0 0 0 0 0 0 0 0 0 0 0 0 0 0 0 0 0 0.25 0"/>
<feBlend mode="normal" in2="effect1_dropShadow" result="effect2_dropShadow"/>
<feBlend mode="normal" in="SourceGraphic" in2="effect2_dropShadow" result="shape"/>
</filter>
</defs>
</svg>
