<svg width="233" height="214" viewBox="0 0 233 214" fill="none" xmlns="http://www.w3.org/2000/svg">
<path d="M187.366 154.434L161.597 144.967H71.4031L45.6343 154.434C38.5005 157.055 33.8223 163.401 33.8223 170.458V203.645C33.8223 209.363 38.87 214 45.0964 214H101.468L116.955 204.108L131.532 214H187.904C194.13 214 199.178 209.364 199.178 203.645V170.459C199.177 163.402 194.499 157.056 187.366 154.434Z" fill="#DAD8DB"/>
<path d="M139.048 0H107.766C101.483 0 95.6161 2.88398 92.1316 7.68519L90.1934 10.3548L79.0317 27.6127V69.0321H169.113V27.6127C169.113 12.3627 155.653 0 139.048 0V0Z" fill="#84491F"/>
<path d="M90.1934 10.3548H82.6774C72.2998 10.3548 63.8872 18.0813 63.8872 27.6127V69.0321H90.1934V10.3548Z" fill="#683A0F"/>
<path d="M163.476 58.6774H157.839C153.688 58.6774 150.323 55.5865 150.323 51.7742V44.871C150.323 39.152 145.275 34.5163 139.049 34.5163H93.9518C92.6343 34.5163 91.3697 34.724 90.1947 35.1052L83.2793 79.3877C83.2793 100.356 93.6687 117.355 116.499 117.355C139.33 117.355 157.838 100.356 157.838 79.3869V75.9353H162.94C167.855 75.9353 172.333 72.6873 172.822 68.1958C173.385 63.0309 168.984 58.6774 163.476 58.6774Z" fill="#E5B882"/>
<path d="M90.1937 79.3869V35.1027C85.8249 36.5292 82.6776 40.3687 82.6776 44.871V51.7742C82.6776 55.5865 79.3123 58.6774 75.1615 58.6774H70.0606C65.1462 58.6774 60.6677 61.925 60.1781 66.4161C59.6147 71.5813 64.0157 75.9353 69.5245 75.9353H75.1615V79.3877C75.1615 100.356 93.6691 117.355 116.499 117.355C119.07 117.355 121.575 117.11 124.016 116.697C104.779 113.447 90.1937 97.9953 90.1937 79.3869Z" fill="#E5B882"/>
<path d="M115.655 82.846C114.921 82.8581 114.192 82.8874 113.467 82.9329C89.6973 84.423 82.6772 115.081 82.6772 125.632V193.29C82.6772 195.197 84.3597 196.742 86.4353 196.742H157.838C159.914 196.742 161.596 195.197 161.596 193.29V124.258C161.597 101.125 140.948 82.4209 115.655 82.846Z" fill="#3CE06A"/>
<path d="M131.532 117.222H116.5V103.548C116.5 99.7357 113.135 96.6452 108.984 96.6452L104.517 103.548V206.616L108.984 214H131.532V151.871L137.786 148.042C140.922 146.121 142.806 142.888 142.806 139.426V127.577C142.806 121.858 137.759 117.222 131.532 117.222Z" fill="#E5B882"/>
<path d="M93.9553 75.9353C92.6342 75.9353 91.3532 75.295 90.6669 74.1606C89.6576 72.4938 90.3111 70.3922 92.1277 69.4668L99.743 65.5806L92.1277 61.6943C90.3111 60.7689 89.658 58.6673 90.6669 57.0005C91.6726 55.3386 93.9626 54.7322 95.7756 55.6605L109.303 62.5637C110.496 63.1722 111.237 64.3266 111.237 65.5806C111.237 66.8345 110.496 67.9889 109.303 68.5975L95.7756 75.5006C95.1995 75.7957 94.572 75.9353 93.9553 75.9353Z" fill="#6F3602"/>
<path d="M139.045 75.9353C138.428 75.9353 137.801 75.7953 137.224 75.5006L123.697 68.5975C122.504 67.9889 121.763 66.8345 121.763 65.5806C121.763 64.3267 122.504 63.1722 123.697 62.5637L137.224 55.6605C139.037 54.7318 141.327 55.3386 142.333 57.0005C143.342 58.6674 142.689 60.7689 140.872 61.6943L133.257 65.5806L140.872 69.4668C142.689 70.3922 143.342 72.4938 142.333 74.1606C141.647 75.295 140.366 75.9353 139.045 75.9353Z" fill="#6E3602"/>
<path d="M60.129 93.1937H30.0647C27.9872 93.1937 26.3066 91.648 26.3066 89.7421C26.3066 87.8361 27.9877 86.2905 30.0647 86.2905H60.1294C62.2068 86.2905 63.8875 87.8361 63.8875 89.7421C63.887 91.648 62.2064 93.1937 60.129 93.1937Z" fill="#DBEAFF"/>
<path d="M45.1004 113.903C43.7206 113.903 42.3954 113.206 41.7351 111.995C40.8067 110.289 41.559 108.217 43.4162 107.364L58.4483 100.46C60.3055 99.6095 62.5586 100.299 63.491 102.004C64.4194 103.71 63.6671 105.783 61.81 106.636L46.7778 113.539C46.2381 113.787 45.6656 113.903 45.1004 113.903Z" fill="#EDF4FF"/>
<path d="M202.935 93.1937H172.87C170.793 93.1937 169.112 91.648 169.112 89.7421C169.112 87.8361 170.793 86.2905 172.87 86.2905H202.935C205.012 86.2905 206.693 87.8361 206.693 89.7421C206.694 91.648 205.012 93.1937 202.935 93.1937Z" fill="#DBEAFF"/>
<path d="M187.899 113.903C187.334 113.903 186.762 113.787 186.222 113.539L171.19 106.636C169.333 105.783 168.581 103.71 169.509 102.004C170.441 100.299 172.698 99.6095 174.552 100.46L189.584 107.364C191.441 108.216 192.193 110.289 191.265 111.995C190.604 113.206 189.279 113.903 187.899 113.903Z" fill="#EDF4FF"/>
<path d="M101.468 214H108.984V96.6452C104.833 96.6452 101.468 99.7361 101.468 103.548V214Z" fill="#DBAC75"/>
<path d="M86.435 122.18C86.435 105.02 97.4442 89.6455 113.467 82.933C89.7084 84.4339 71.4028 103.508 71.4028 125.632V193.29C71.4028 195.196 73.0853 196.742 75.1609 196.742H86.435V122.18Z" fill="#2CB452"/>
</svg>
