<svg width="200" height="200" viewBox="0 0 200 200" fill="none" xmlns="http://www.w3.org/2000/svg">
<g clip-path="url(#clip0)">
<path d="M164.516 129.032H154.839C153.055 129.032 151.613 127.588 151.613 125.807C151.613 124.025 153.056 122.581 154.839 122.581H164.516C166.299 122.581 167.742 124.025 167.742 125.807C167.742 127.588 166.299 129.032 164.516 129.032Z" fill="#F5EBCD"/>
<path d="M164.516 141.936H154.839C153.055 141.936 151.613 140.491 151.613 138.71C151.613 136.929 153.056 135.484 154.839 135.484H164.516C166.299 135.484 167.742 136.929 167.742 138.71C167.742 140.491 166.299 141.936 164.516 141.936Z" fill="#F5EBCD"/>
<path d="M164.516 154.839H154.839C153.055 154.839 151.613 153.394 151.613 151.613C151.613 149.832 153.056 148.387 154.839 148.387H164.516C166.299 148.387 167.742 149.832 167.742 151.613C167.742 153.394 166.299 154.839 164.516 154.839Z" fill="#F5EBCD"/>
<path d="M164.516 167.742H154.839C153.055 167.742 151.613 166.297 151.613 164.516C151.613 162.735 153.056 161.29 154.839 161.29H164.516C166.299 161.29 167.742 162.735 167.742 164.516C167.742 166.297 166.299 167.742 164.516 167.742Z" fill="#F5EBCD"/>
<path d="M151.613 106.452L149.316 112.903V122.58L151.613 125.806L158.064 122.58V112.903C158.064 109.34 155.176 106.452 151.613 106.452Z" fill="#FAF5DC"/>
<path d="M145.161 112.903V122.58L151.613 125.806V106.452C148.05 106.452 145.161 109.34 145.161 112.903Z" fill="#F5EBCD"/>
<path d="M145.06 157.102L115.545 144.462C111.986 142.938 109.677 139.438 109.677 135.566V116.129H77.4192V135.566C77.4192 139.438 75.111 142.937 71.5516 144.462L42.0371 157.102C36.1047 159.643 32.2578 165.475 32.2578 171.929V193.548C32.2578 197.112 35.1465 200 38.7094 200H148.387C151.95 200 154.838 197.111 154.838 193.548V171.929C154.839 165.475 150.992 159.643 145.06 157.102Z" fill="#DAD8DB"/>
<path d="M121.26 180.708L102.713 153.044L79.5703 153.281L105.184 191.486C106.177 192.966 108.18 193.361 109.66 192.369L120.378 185.184C121.857 184.192 122.252 182.188 121.26 180.708Z" fill="#E5414A"/>
<path d="M116.129 119.355H78.818C73.4734 119.355 69.1406 123.687 69.1406 129.032V148.387C69.1406 151.95 75.7328 153.125 93.5484 153.125C112.761 153.125 125.807 145.847 125.807 139.304V129.032C125.807 123.687 121.474 119.355 116.129 119.355Z" fill="#F3414A"/>
<path d="M77.4194 131.086V119.355H70.9679C65.8542 119.355 61.6667 123.321 61.3144 128.345L61.2905 134.889V148.387C61.2905 151.95 75.7331 154.839 93.5487 154.839C111.364 154.839 125.807 151.95 125.807 148.387V145.847V141.936V139.304L77.4194 131.086ZM93.5483 148.387C89.9862 148.387 86.5651 148.27 83.3659 148.055C80.0054 147.829 77.419 144.99 77.419 141.622V137.629L121.574 145.129C116.02 147.074 105.554 148.387 93.5483 148.387Z" fill="#F42E37"/>
<path d="M138.708 64.0535L57.6911 37.057C51.8556 44.666 48.3872 54.1859 48.3872 64.516V80.6453H138.71V64.516C138.71 64.3617 138.709 64.2074 138.708 64.0535Z" fill="#683A0F"/>
<path d="M133.871 74.1938H129.032C125.469 74.1938 122.581 71.3051 122.581 67.7422V67.7293V64.5164C122.581 57.3902 116.804 51.6133 109.678 51.6133H77.4193C75.0693 51.6133 72.8662 52.2414 70.9682 53.3391L63.4111 85.6773C63.4111 105.274 73.9506 125.261 93.5479 125.261C95.7705 125.261 97.9455 125.602 100.055 125.211C116.544 122.155 129.032 107.697 129.031 90.3227H133.41C137.629 90.3227 141.473 87.2871 141.893 83.0898C142.377 78.2621 138.599 74.1938 133.871 74.1938Z" fill="#DBAC75"/>
<path d="M70.9674 90.3227V53.3379C67.1268 55.573 64.5158 59.7523 64.5158 64.516V67.7418C64.5158 71.3047 61.6271 74.1934 58.0643 74.1934H53.6861C49.4678 74.1934 45.6232 77.2285 45.2029 81.4258C44.7193 86.2531 48.4971 90.3223 53.2256 90.3223H58.0643V90.3227C58.0643 109.92 73.9506 125.806 93.5479 125.806C95.7545 125.806 97.9596 125.596 100.055 125.211C83.5428 122.173 70.9674 107.713 70.9674 90.3227Z" fill="#CE9E65"/>
<path d="M93.5483 51.6133C107.801 51.6133 119.355 40.0593 119.355 25.8066C119.355 11.554 107.801 0 93.5483 0C79.2957 0 67.7417 11.554 67.7417 25.8066C67.7417 40.0593 79.2957 51.6133 93.5483 51.6133Z" fill="#683A0F"/>
<path d="M93.5483 19.3547C78.9335 19.3547 65.9452 26.2902 57.6909 37.0566C76.5651 54.0973 101.601 64.5156 129.032 64.5156C132.289 64.5156 135.525 64.3391 138.707 64.0527C138.46 39.3238 118.336 19.3547 93.5483 19.3547Z" fill="#84491F"/>
<path d="M77.4196 83.8711C75.6364 83.8711 74.1938 82.4265 74.1938 80.6453V77.4195C74.1938 75.6383 75.6368 74.1937 77.4196 74.1937C79.2028 74.1937 80.6454 75.6383 80.6454 77.4195V80.6453C80.6454 82.4265 79.2024 83.8711 77.4196 83.8711Z" fill="#6E3602"/>
<path d="M109.677 83.8711C107.894 83.8711 106.452 82.4265 106.452 80.6453V77.4195C106.452 75.6383 107.895 74.1937 109.677 74.1937C111.46 74.1937 112.903 75.6383 112.903 77.4195V80.6453C112.903 82.4265 111.461 83.8711 109.677 83.8711Z" fill="#6E3602"/>
<path d="M99.997 105.108C99.3451 105.108 98.6865 104.911 98.113 104.5C95.8701 102.881 91.2267 102.881 88.9837 104.5C87.5314 105.545 85.5185 105.216 84.4791 103.768C83.4396 102.322 83.7669 100.306 85.2099 99.2649C89.6705 96.0547 97.4263 96.0547 101.887 99.2649C103.33 100.306 103.658 102.322 102.618 103.768C101.988 104.643 100.999 105.108 99.997 105.108Z" fill="#C64939"/>
<path d="M158.064 175.983V122.581H151.613L147.168 191.895L151.613 200C158.739 200 164.516 194.223 164.516 187.097C164.516 182.333 161.905 178.218 158.064 175.983Z" fill="#E5414A"/>
<path d="M77.4194 131.086L61.319 128.346C61.303 128.573 61.2905 128.801 61.2905 129.032V134.889L77.4194 137.629V131.086Z" fill="#E52E37"/>
<path d="M151.613 122.58H145.161V175.983C140.472 178.711 137.616 184.241 139.106 190.334C140.222 194.895 143.944 198.577 148.518 199.64C149.568 199.884 150.604 199.998 151.613 199.998V122.58Z" fill="#E52E37"/>
</g>
<defs>
<clipPath id="clip0">
<rect width="200" height="200" fill="white"/>
</clipPath>
</defs>
</svg>
