<svg width="111" height="107" viewBox="0 0 111 107" fill="none" xmlns="http://www.w3.org/2000/svg">
<g clip-path="url(#clip0)">
<path fill-rule="evenodd" clip-rule="evenodd" d="M104.762 22.1907C107.485 25.5252 106.781 30.2776 103.191 32.8059C101.382 34.0792 99.1867 34.5454 97.1061 34.2685C94.3601 33.9036 91.8542 34.5057 89.6442 36.062L83.6806 40.2611C81.807 41.5808 78.494 37.4615 80.3363 36.1638L86.2999 31.9651C88.5099 30.4089 89.8103 28.3314 90.173 25.7771C90.4481 23.8407 91.5243 22.0034 93.3327 20.7306C96.9219 18.2023 102.04 18.8562 104.762 22.1907Z" fill="#8D0377"/>
<path fill-rule="evenodd" clip-rule="evenodd" d="M107.051 86.9251C104.57 90.4183 99.511 91.3822 95.7491 89.0778C93.8558 87.918 92.6514 86.1505 92.2404 84.2344C91.6979 81.7086 90.2534 79.7151 87.9377 78.2967L81.6907 74.4696C79.7273 73.2675 82.8091 68.9961 84.738 70.1779L90.9855 74.0045C93.3013 75.4228 95.8434 75.8712 98.5575 75.3394C100.616 74.9368 102.838 75.2676 104.733 76.4285C108.494 78.7324 109.532 83.4313 107.051 86.9251Z" fill="#8D0377"/>
<path fill-rule="evenodd" clip-rule="evenodd" d="M7.62699 88.7511C4.99943 85.3515 5.83729 80.6179 9.49669 78.1771C11.3412 76.9481 13.5479 76.5353 15.6209 76.8631C18.3559 77.2946 20.8771 76.7531 23.1299 75.2508L29.2102 71.1977C31.1199 69.9239 34.3163 74.122 32.4384 75.374L26.3591 79.4276C24.1053 80.9299 22.7468 82.9753 22.3123 85.5194C21.9824 87.4482 20.8563 89.2585 19.0129 90.488C15.3524 92.9278 10.2545 92.1507 7.62699 88.7511Z" fill="#8D0377"/>
<path fill-rule="evenodd" clip-rule="evenodd" d="M0.580619 35.3281C2.24702 31.4399 6.99144 29.5431 11.1774 31.0908C13.2855 31.87 14.85 33.3738 15.6714 35.1714C16.7542 37.5435 18.6037 39.2239 21.1814 40.1761L28.1347 42.7467C30.3189 43.5549 28.2355 48.3179 26.0869 47.524L19.1341 44.9534C16.5564 44.0012 13.9694 44.0409 11.4279 45.0725C9.50118 45.8547 7.25172 45.9494 5.14365 45.1707C0.957087 43.6231 -1.08579 39.2158 0.580619 35.3281Z" fill="#8D0377"/>
<path fill-rule="evenodd" clip-rule="evenodd" d="M56.6631 -3.8147e-06C61.1686 -3.8147e-06 64.8209 3.39249 64.8209 7.57637C64.8209 9.68434 63.8948 11.5908 62.3994 12.9639C60.4283 14.7756 59.431 16.9925 59.431 19.5697V26.5196C59.431 28.7039 53.8947 28.6668 53.8947 26.5196V19.5697C53.8947 16.9925 52.898 14.7756 50.9263 12.9639C49.4309 11.5908 48.5054 9.68434 48.5054 7.57637C48.5054 3.39249 52.1571 -3.8147e-06 56.6631 -3.8147e-06Z" fill="#8D0377"/>
<path fill-rule="evenodd" clip-rule="evenodd" d="M56.664 90.5171C77.0976 90.5171 93.765 75.0381 93.765 56.0597C93.765 37.0814 77.0976 21.6024 56.664 21.6024C36.2288 21.6024 19.562 37.0814 19.562 56.0597C19.562 75.0381 36.2288 90.5171 56.664 90.5171Z" fill="#C745BD"/>
<path fill-rule="evenodd" clip-rule="evenodd" d="M83.6981 32.4649C89.9385 38.63 93.7639 46.9301 93.7639 56.0597C93.7639 75.09 77.153 90.5171 56.663 90.5171C42.0884 90.5171 29.4788 82.7107 23.4116 71.356C30.1792 78.0413 39.7869 82.2185 50.4473 82.2185C70.9368 82.2185 87.5482 66.7915 87.5482 47.7607C87.5482 42.2668 86.1613 37.0737 83.6981 32.4649Z" fill="#A61B90"/>
<path fill-rule="evenodd" clip-rule="evenodd" d="M48.698 25.3908C59.4275 25.3908 65.8651 33.468 63.0803 43.4317C60.2949 53.395 49.3403 61.4727 38.6125 61.4727C27.8847 61.4727 21.4454 53.395 24.2302 43.4317C27.0156 33.468 37.9703 25.3908 48.698 25.3908Z" fill="#DF60D5"/>
<path fill-rule="evenodd" clip-rule="evenodd" d="M28.752 12.1837C32.6854 10.1408 37.6556 11.4457 39.8552 15.0983C40.9632 16.9375 41.1566 19.0211 40.573 20.897C39.8047 23.3729 40.1138 25.7527 41.4542 28.0087L43.9869 32.2725C45.1229 34.1851 40.2711 36.6625 39.1548 34.782L36.6226 30.5188C35.2817 28.2622 33.2323 26.7863 30.5587 26.0987C28.5328 25.5781 26.7223 24.3343 25.6143 22.495C23.4147 18.843 24.8197 14.2265 28.752 12.1837Z" fill="#8D0377"/>
<path fill-rule="evenodd" clip-rule="evenodd" d="M110.936 48.5581C111.494 52.7105 108.32 56.4964 103.85 57.0145C101.599 57.2755 99.4469 56.6572 97.7942 55.45C95.6154 53.8561 93.1249 53.227 90.3696 53.5309L85.1622 54.1054C82.8278 54.363 82.1812 49.2564 84.4772 49.0035L89.6847 48.4289C92.4399 48.1245 94.6828 46.9169 96.3749 44.8751C97.6572 43.3274 99.5795 42.2373 101.831 41.9767C106.303 41.4591 110.379 44.4058 110.936 48.5581Z" fill="#8D0377"/>
<path fill-rule="evenodd" clip-rule="evenodd" d="M54.6441 106.986C50.1457 106.733 46.7209 103.142 46.9927 98.9647C47.1297 96.8613 48.1785 95.0109 49.7599 93.7243C51.8467 92.0255 52.97 89.8677 53.153 87.2976L53.501 82.4379C53.6572 80.2586 59.1803 80.6057 59.0268 82.7483L58.6799 87.607C58.4958 90.1786 59.3627 92.4489 61.2133 94.3681C62.6166 95.8226 63.4172 97.7774 63.2802 99.8808C63.0084 104.058 59.1408 107.239 54.6441 106.986Z" fill="#8D0377"/>
<path fill-rule="evenodd" clip-rule="evenodd" d="M2.33683 63.2244C1.80858 59.0685 5.00823 55.3019 9.48303 54.8123C11.7363 54.5655 13.8828 55.1971 15.5267 56.4144C17.695 58.0216 20.1812 58.6664 22.9381 58.3799L28.1488 57.8369C30.486 57.5941 31.0948 62.7042 28.7971 62.9434L23.5869 63.486C20.8295 63.7725 18.5773 64.9659 16.8709 66.9975C15.5771 68.5381 13.6477 69.6155 11.3944 69.8618C6.91958 70.3524 2.86453 67.3803 2.33683 63.2244Z" fill="#8D0377"/>
<path fill-rule="evenodd" clip-rule="evenodd" d="M74.4887 22.6477C78.4927 24.5648 80.0665 29.1345 78.0029 32.8537C76.9628 34.7271 75.1988 36.0274 73.1932 36.6116C70.546 37.3832 68.5804 38.9374 67.2953 41.2205L66.7282 42.2271C65.6388 44.1626 60.736 41.7742 61.8073 39.8713L62.3745 38.8646C63.6589 36.5816 63.8529 34.1795 62.9932 31.729C62.3427 29.8729 62.4589 27.7838 63.4984 25.9115C65.5632 22.1912 70.4829 20.7306 74.4887 22.6477Z" fill="#8D0377"/>
<path fill-rule="evenodd" clip-rule="evenodd" d="M82.4824 84.615C78.9863 87.2553 73.8479 86.7627 71.005 83.5158C69.5742 81.8806 68.9983 79.8591 69.2257 77.9176C69.5249 75.3561 68.7802 73.0609 67.0426 71.0532L66.2759 70.1666C64.803 68.4643 69.1238 65.2499 70.5716 66.9232L71.3376 67.8093C73.0764 69.8175 75.3669 70.9448 78.1276 71.1952C80.2209 71.3845 82.2358 72.3209 83.6666 73.9561C86.5079 77.2035 85.9791 81.9752 82.4824 84.615Z" fill="#8D0377"/>
<path fill-rule="evenodd" clip-rule="evenodd" d="M32.8272 86.0665C29.2439 83.529 28.5557 78.7746 31.2868 75.4467C32.6622 73.7714 34.6443 72.7769 36.7299 72.527C39.4807 72.1962 41.7088 70.9855 43.4032 68.9462L44.1512 68.0475C45.5874 66.3176 49.9652 69.4653 48.5536 71.1646L47.8056 72.0634C46.1102 74.1037 45.468 76.4376 45.8532 78.9889C46.1453 80.9228 45.6378 82.96 44.2619 84.6359C41.5291 87.9638 36.4104 88.604 32.8272 86.0665Z" fill="#8D0377"/>
<path fill-rule="evenodd" clip-rule="evenodd" d="M50.7723 61.5414C55.2115 61.5414 58.8325 58.1779 58.8325 54.0551C58.8325 49.9307 55.2115 46.5677 50.7723 46.5677C46.3315 46.5677 42.7104 49.9307 42.7104 54.0551C42.7104 58.1779 46.3315 61.5414 50.7723 61.5414Z" fill="#8D0377"/>
<path fill-rule="evenodd" clip-rule="evenodd" d="M75.0033 73.3133C72.6437 73.6975 70.7302 75.4432 70.7302 77.2112C70.7302 78.9797 72.6437 80.1019 75.0033 79.7176C77.364 79.3334 79.2765 77.5883 79.2765 75.8193C79.2765 74.0513 77.364 72.9291 75.0033 73.3133ZM52.762 92.8871C50.4029 93.2719 48.4894 95.017 48.4894 96.7855C48.4894 98.554 50.4029 99.6757 52.762 99.2914C55.1221 98.9072 57.0357 97.1621 57.0357 95.3936C57.0357 93.6251 55.1221 92.5024 52.762 92.8871ZM35.4749 73.9449C33.1142 74.3291 31.2012 76.0742 31.2012 77.8428C31.2012 79.6108 33.1142 80.7335 35.4749 80.3487C37.8345 79.9645 39.7469 78.2189 39.7469 76.4508C39.7469 74.6823 37.8345 73.5601 35.4749 73.9449ZM12.3589 78.0036C9.99875 78.3883 8.08521 80.1339 8.08521 81.9014C8.08521 83.6705 9.99875 84.7927 12.3589 84.4079C14.719 84.0237 16.632 82.278 16.632 80.51C16.632 78.7415 14.719 77.6188 12.3589 78.0036ZM8.18274 56.2648C5.8226 56.6485 3.90906 58.3947 3.90906 60.1627C3.90906 61.9312 5.8226 63.0534 8.18274 62.6691C10.5429 62.2844 12.4559 60.5393 12.4559 58.7708C12.4559 57.0028 10.5429 55.8801 8.18274 56.2648ZM6.20674 31.8389C3.84714 32.2237 1.93359 33.9688 1.93359 35.7373C1.93359 37.5053 3.84714 38.6275 6.20674 38.2437C8.56688 37.859 10.4804 36.1139 10.4804 34.3454C10.4804 32.5769 8.56688 31.4547 6.20674 31.8389ZM30.8127 12.6071C28.4525 12.9913 26.54 14.7365 26.54 16.5045C26.54 18.2735 28.4525 19.3952 30.8127 19.0109C33.1733 18.6267 35.0874 16.8816 35.0874 15.1131C35.0874 13.344 33.1733 12.2219 30.8127 12.6071ZM48.7809 47.8762C46.4202 48.2604 44.5077 50.006 44.5077 51.774C44.5077 53.5426 46.4202 54.6647 48.7809 54.2805C51.141 53.8958 53.0551 52.1507 53.0551 50.3821C53.0551 48.6136 51.141 47.4919 48.7809 47.8762ZM96.2255 20.5901C93.8653 20.9749 91.9523 22.7195 91.9523 24.488C91.9523 26.2565 93.8653 27.3782 96.2255 26.9939C98.5862 26.6097 100.499 24.8646 100.499 23.0966C100.499 21.3276 98.5862 20.2059 96.2255 20.5901ZM68.8862 22.5098C66.5261 22.894 64.612 24.6391 64.612 26.4077C64.612 28.1762 66.5261 29.2983 68.8862 28.9136C71.2458 28.5294 73.1589 26.7843 73.1589 25.0157C73.1589 23.2472 71.2458 22.1251 68.8862 22.5098ZM54.5117 1.04126C52.1515 1.4255 50.238 3.1711 50.238 4.93912C50.238 6.70763 52.1515 7.82983 54.5117 7.4461C56.8713 7.06135 58.7842 5.31625 58.7842 3.54773C58.7842 1.77921 56.8713 0.657021 54.5117 1.04126ZM98.8969 75.974C96.5367 76.3582 94.6232 78.1038 94.6232 79.8723C94.6232 81.6409 96.5367 82.7631 98.8969 82.3783C101.256 81.9946 103.169 80.249 103.169 78.4809C103.169 76.7119 101.256 75.5902 98.8969 75.974ZM101.421 43.0052C99.0618 43.39 97.1477 45.1346 97.1477 46.9036C97.1477 48.6716 99.0618 49.7943 101.421 49.4096C103.782 49.0253 105.695 47.2797 105.695 45.5112C105.695 43.7432 103.782 42.621 101.421 43.0052Z" fill="#C140B8"/>
</g>
<defs>
<clipPath id="clip0">
<rect width="111" height="107" fill="white"/>
</clipPath>
</defs>
</svg>
