<svg width="190" height="184" viewBox="0 0 190 184" fill="none" xmlns="http://www.w3.org/2000/svg">
<g clip-path="url(#clip0)">
<path fill-rule="evenodd" clip-rule="evenodd" d="M179.322 38.1597C183.983 43.8938 182.778 52.0661 176.633 56.4139C173.537 58.6035 169.779 59.4052 166.218 58.9291C161.517 58.3016 157.228 59.3369 153.445 62.0132L143.237 69.2341C140.03 71.5034 134.359 64.4198 137.512 62.1882L147.721 54.9681C151.503 52.2918 153.729 48.7194 154.35 44.327C154.821 40.997 156.663 37.8377 159.759 35.6489C165.902 31.3011 174.663 32.4257 179.322 38.1597Z" fill="#8D0377"/>
<path fill-rule="evenodd" clip-rule="evenodd" d="M183.241 149.479C178.994 155.486 170.334 157.143 163.895 153.181C160.654 151.186 158.593 148.147 157.889 144.852C156.961 140.508 154.488 137.08 150.524 134.641L139.831 128.06C136.47 125.993 141.746 118.648 145.047 120.68L155.741 127.26C159.705 129.699 164.056 130.47 168.702 129.556C172.225 128.863 176.03 129.432 179.272 131.428C185.711 135.39 187.487 143.471 183.241 149.479Z" fill="#8D0377"/>
<path fill-rule="evenodd" clip-rule="evenodd" d="M13.0552 152.619C8.55758 146.773 9.99175 138.633 16.2556 134.435C19.4128 132.322 23.1901 131.612 26.7385 132.176C31.42 132.918 35.7356 131.987 39.5917 129.403L49.9995 122.433C53.2684 120.243 58.7396 127.462 55.5252 129.615L45.1192 136.586C41.2613 139.169 38.936 142.686 38.1922 147.061C37.6275 150.378 35.7 153.491 32.5446 155.606C26.2789 159.801 17.5528 158.465 13.0552 152.619Z" fill="#8D0377"/>
<path fill-rule="evenodd" clip-rule="evenodd" d="M0.993853 60.7512C3.84626 54.0649 11.9673 50.8032 19.1326 53.4646C22.741 54.8044 25.4189 57.3905 26.825 60.4816C28.6784 64.5607 31.8441 67.4505 36.2564 69.0879L48.1584 73.5084C51.8972 74.8981 48.331 83.0888 44.6532 81.7236L32.7521 77.3031C28.3398 75.6657 23.9116 75.7339 19.5612 77.5079C16.2633 78.853 12.4129 79.0158 8.80444 77.6768C1.63826 75.0154 -1.85855 67.4365 0.993853 60.7512Z" fill="#8D0377"/>
<path fill-rule="evenodd" clip-rule="evenodd" d="M96.9906 1.52588e-05C104.703 1.52588e-05 110.954 5.83384 110.954 13.0285C110.954 16.6535 109.369 19.9318 106.809 22.293C103.435 25.4086 101.728 29.2208 101.728 33.6526V45.6039C101.728 49.3601 92.2519 49.2962 92.2519 45.6039V33.6526C92.2519 29.2208 90.5457 25.4086 87.1709 22.293C84.6111 19.9318 83.0269 16.6535 83.0269 13.0285C83.0269 5.83384 89.2776 1.52588e-05 96.9906 1.52588e-05Z" fill="#8D0377"/>
<path fill-rule="evenodd" clip-rule="evenodd" d="M96.9929 155.656C131.969 155.656 160.499 129.037 160.499 96.4018C160.499 63.7661 131.969 37.148 96.9929 37.148C62.0136 37.148 33.4849 63.7661 33.4849 96.4018C33.4849 129.037 62.0136 155.656 96.9929 155.656Z" fill="#C745BD"/>
<path fill-rule="evenodd" clip-rule="evenodd" d="M143.267 55.827C153.949 66.4287 160.497 80.7017 160.497 96.4013C160.497 129.126 132.064 155.655 96.991 155.655C72.0435 155.655 50.4596 142.231 40.0742 122.705C51.6583 134.201 68.104 141.385 86.3515 141.385C121.424 141.385 149.858 114.856 149.858 82.13C149.858 72.6827 147.484 63.7525 143.267 55.827Z" fill="#A61B90"/>
<path fill-rule="evenodd" clip-rule="evenodd" d="M83.357 43.6627C101.723 43.6627 112.742 57.5524 107.975 74.6864C103.207 91.8194 84.4563 105.71 66.0934 105.71C47.7305 105.71 36.7083 91.8194 41.4751 74.6864C46.2428 57.5524 64.9941 43.6627 83.357 43.6627Z" fill="#DF60D5"/>
<path fill-rule="evenodd" clip-rule="evenodd" d="M49.2158 20.9514C55.9486 17.4385 64.4561 19.6824 68.2212 25.9635C70.1178 29.1263 70.4489 32.7092 69.4499 35.9351C68.1349 40.1927 68.6639 44.285 70.9582 48.1646L75.2935 55.4967C77.238 58.7856 68.9331 63.0459 67.0224 59.8121L62.688 52.4809C60.3928 48.6004 56.8847 46.0625 52.3083 44.8801C48.8406 43.9848 45.7415 41.8459 43.8449 38.6831C40.0798 32.4029 42.4848 24.4643 49.2158 20.9514Z" fill="#8D0377"/>
<path fill-rule="evenodd" clip-rule="evenodd" d="M189.891 83.5018C190.845 90.6423 185.414 97.1526 177.761 98.0435C173.908 98.4925 170.225 97.4292 167.396 95.3533C163.666 92.6123 159.403 91.5306 154.687 92.0531L145.773 93.0411C141.778 93.4839 140.671 84.7026 144.601 84.2676L153.515 83.2796C158.231 82.7562 162.07 80.6794 164.966 77.1683C167.161 74.5069 170.452 72.6323 174.306 72.1842C181.96 71.2942 188.937 76.3614 189.891 83.5018Z" fill="#8D0377"/>
<path fill-rule="evenodd" clip-rule="evenodd" d="M93.535 183.976C85.8351 183.541 79.9728 177.366 80.438 170.182C80.6725 166.565 82.4678 163.383 85.1748 161.171C88.7466 158.249 90.6695 154.539 90.9828 150.119L91.5784 141.762C91.8457 138.015 101.3 138.612 101.037 142.296L100.443 150.651C100.128 155.074 101.612 158.978 104.78 162.278C107.182 164.779 108.552 168.141 108.318 171.758C107.852 178.941 101.232 184.411 93.535 183.976Z" fill="#8D0377"/>
<path fill-rule="evenodd" clip-rule="evenodd" d="M3.99999 108.722C3.09577 101.576 8.57265 95.0986 16.2322 94.2567C20.0892 93.8323 23.7633 94.9184 26.5772 97.0118C30.2888 99.7755 34.5444 100.884 39.2634 100.392L48.1827 99.4578C52.1832 99.0404 53.2253 107.828 49.2923 108.239L40.374 109.172C35.6541 109.665 31.799 111.717 28.8781 115.211C26.6635 117.86 23.3609 119.713 19.5039 120.136C11.8443 120.98 4.90327 115.869 3.99999 108.722Z" fill="#8D0377"/>
<path fill-rule="evenodd" clip-rule="evenodd" d="M127.503 38.9456C134.357 42.2423 137.051 50.1003 133.518 56.4959C131.738 59.7173 128.719 61.9533 125.286 62.958C120.754 64.2847 117.39 66.9574 115.19 70.8833L114.219 72.6144C112.355 75.9426 103.963 71.8355 105.796 68.5633L106.767 66.8323C108.966 62.9064 109.298 58.7756 107.826 54.5618C106.713 51.3701 106.912 47.7776 108.691 44.5579C112.225 38.1606 120.647 35.6489 127.503 38.9456Z" fill="#8D0377"/>
<path fill-rule="evenodd" clip-rule="evenodd" d="M141.187 145.506C135.202 150.047 126.407 149.199 121.541 143.616C119.092 140.804 118.106 137.328 118.495 133.989C119.007 129.584 117.732 125.637 114.758 122.185L113.446 120.66C110.925 117.733 118.321 112.205 120.799 115.083L122.11 116.607C125.086 120.06 129.007 121.999 133.733 122.429C137.316 122.755 140.765 124.365 143.214 127.177C148.077 132.761 147.172 140.967 141.187 145.506Z" fill="#8D0377"/>
<path fill-rule="evenodd" clip-rule="evenodd" d="M56.1905 148.002C50.057 143.639 48.8789 135.463 53.5538 129.74C55.9081 126.859 59.3008 125.149 62.8708 124.719C67.5794 124.151 71.3933 122.069 74.2935 118.562L75.5739 117.016C78.0323 114.042 85.5259 119.454 83.1096 122.377L81.8293 123.922C78.9271 127.431 77.8278 131.444 78.4872 135.831C78.9872 139.157 78.1186 142.66 75.7633 145.542C71.0856 151.265 62.3239 152.366 56.1905 148.002Z" fill="#8D0377"/>
<path fill-rule="evenodd" clip-rule="evenodd" d="M86.9075 105.828C94.5061 105.828 100.704 100.044 100.704 92.9545C100.704 85.8622 94.5061 80.0791 86.9075 80.0791C79.3061 80.0791 73.1079 85.8622 73.1079 92.9545C73.1079 100.044 79.3061 105.828 86.9075 105.828Z" fill="#8D0377"/>
<path fill-rule="evenodd" clip-rule="evenodd" d="M128.384 126.071C124.345 126.732 121.07 129.734 121.07 132.774C121.07 135.815 124.345 137.745 128.384 137.084C132.425 136.424 135.698 133.423 135.698 130.381C135.698 127.34 132.425 125.41 128.384 126.071ZM90.3131 159.731C86.2751 160.392 82.9996 163.393 82.9996 166.435C82.9996 169.476 86.2751 171.405 90.3131 170.744C94.353 170.083 97.6284 167.082 97.6284 164.041C97.6284 161 94.353 159.069 90.3131 159.731ZM60.7225 127.157C56.6817 127.818 53.4072 130.819 53.4072 133.86C53.4072 136.9 56.6817 138.831 60.7225 138.169C64.7615 137.509 68.035 134.507 68.035 131.467C68.035 128.425 64.7615 126.496 60.7225 127.157ZM21.1547 134.137C17.1148 134.798 13.8394 137.8 13.8394 140.84C13.8394 143.882 17.1148 145.811 21.1547 145.15C25.1946 144.489 28.4691 141.487 28.4691 138.447C28.4691 135.406 25.1946 133.475 21.1547 134.137ZM14.0063 96.7542C9.96642 97.414 6.69099 100.417 6.69099 103.457C6.69099 106.498 9.96642 108.428 14.0063 107.767C18.0462 107.106 21.3207 104.105 21.3207 101.063C21.3207 98.0232 18.0462 96.0926 14.0063 96.7542ZM10.624 54.7508C6.58501 55.4124 3.30957 58.4133 3.30957 61.4545C3.30957 64.4948 6.58501 66.4246 10.624 65.7647C14.6639 65.1031 17.9393 62.1021 17.9393 59.0609C17.9393 56.0198 14.6639 54.09 10.624 54.7508ZM52.7422 21.6793C48.7023 22.34 45.4287 25.341 45.4287 28.3813C45.4287 31.4233 48.7023 33.3522 52.7422 32.6914C56.783 32.0307 60.0594 29.0297 60.0594 25.9886C60.0594 22.9465 56.783 21.0168 52.7422 21.6793ZM83.4986 82.3289C79.4578 82.9896 76.1842 85.9914 76.1842 89.0317C76.1842 92.0729 79.4578 94.0027 83.4986 93.3419C87.5385 92.6803 90.8149 89.6794 90.8149 86.6382C90.8149 83.597 87.5385 81.6681 83.4986 82.3289ZM164.71 35.4071C160.67 36.0687 157.396 39.0687 157.396 42.1099C157.396 45.1511 160.67 47.08 164.71 46.4192C168.751 45.7585 172.025 42.7576 172.025 39.7172C172.025 36.6752 168.751 34.7463 164.71 35.4071ZM117.913 38.7082C113.873 39.3689 110.597 42.3699 110.597 45.411C110.597 48.4522 113.873 50.382 117.913 49.7203C121.952 49.0596 125.227 46.0587 125.227 43.0175C125.227 39.9763 121.952 38.0466 117.913 38.7082ZM93.308 1.79033C89.2682 2.45108 85.9927 5.45287 85.9927 8.49318C85.9927 11.5344 89.2682 13.4641 93.308 12.8043C97.347 12.1426 100.621 9.14171 100.621 6.10052C100.621 3.05933 97.347 1.12958 93.308 1.79033ZM169.283 130.647C165.243 131.307 161.967 134.309 161.967 137.35C161.967 140.392 165.243 142.321 169.283 141.66C173.321 141 176.596 137.998 176.596 134.958C176.596 131.916 173.321 129.987 169.283 130.647ZM173.604 73.9527C169.565 74.6143 166.289 77.6144 166.289 80.6564C166.289 83.6967 169.565 85.6274 173.604 84.9657C177.644 84.305 180.919 81.3032 180.919 78.262C180.919 75.2217 177.644 73.2919 173.604 73.9527Z" fill="#C140B8"/>
</g>
<defs>
<clipPath id="clip0">
<rect width="190" height="184" fill="white"/>
</clipPath>
</defs>
</svg>
