<svg width="383" height="370" viewBox="0 0 383 370" fill="none" xmlns="http://www.w3.org/2000/svg">
<g clip-path="url(#clip0)">
<path fill-rule="evenodd" clip-rule="evenodd" d="M361.476 76.7342C370.871 88.2647 368.441 104.698 356.055 113.441C349.813 117.844 342.239 119.456 335.06 118.499C325.585 117.237 316.938 119.319 309.313 124.7L288.736 139.221C282.271 143.784 270.84 129.54 277.196 125.052L297.774 110.534C305.399 105.152 309.886 97.9684 311.138 89.1358C312.087 82.4396 315.8 76.0866 322.04 71.6853C334.424 62.9424 352.084 65.2038 361.476 76.7342Z" fill="#8D0377"/>
<path fill-rule="evenodd" clip-rule="evenodd" d="M369.375 300.582C360.814 312.661 343.358 315.995 330.378 308.026C323.846 304.015 319.69 297.903 318.272 291.278C316.4 282.544 311.416 275.65 303.425 270.746L281.87 257.512C275.096 253.355 285.729 238.585 292.385 242.671L313.942 255.903C321.932 260.808 330.703 262.358 340.068 260.519C347.17 259.127 354.839 260.271 361.376 264.285C374.354 272.252 377.935 288.501 369.375 300.582Z" fill="#8D0377"/>
<path fill-rule="evenodd" clip-rule="evenodd" d="M26.3168 306.896C17.2506 295.141 20.1416 278.772 32.7682 270.332C39.1325 266.082 46.7466 264.655 53.8994 265.788C63.3363 267.281 72.0358 265.408 79.8087 260.213L100.789 246.198C107.378 241.793 118.407 256.31 111.927 260.639L90.9511 274.656C83.1743 279.851 78.4871 286.924 76.9877 295.721C75.8494 302.391 71.9639 308.651 65.6033 312.903C52.973 321.339 35.3831 318.652 26.3168 306.896Z" fill="#8D0377"/>
<path fill-rule="evenodd" clip-rule="evenodd" d="M2.0034 122.163C7.75324 108.717 24.1236 102.159 38.5672 107.51C45.841 110.205 51.2392 115.405 54.0735 121.621C57.8096 129.823 64.191 135.634 73.0852 138.927L97.0773 147.816C104.614 150.61 97.4252 167.081 90.0114 164.335L66.0213 155.446C57.1271 152.154 48.2007 152.291 39.4313 155.858C32.7834 158.563 25.0217 158.89 17.7479 156.198C3.30238 150.846 -3.74645 135.606 2.0034 122.163Z" fill="#8D0377"/>
<path fill-rule="evenodd" clip-rule="evenodd" d="M195.513 -3.05176e-05C211.059 -3.05176e-05 223.661 11.731 223.661 26.1987C223.661 33.4879 220.465 40.0803 215.305 44.8283C208.504 51.0933 205.063 58.7592 205.063 67.671V91.7033C205.063 99.2566 185.96 99.1281 185.96 91.7033V67.671C185.96 58.7592 182.521 51.0933 175.718 44.8283C170.558 40.0803 167.365 33.4879 167.365 26.1987C167.365 11.731 179.965 -3.05176e-05 195.513 -3.05176e-05Z" fill="#8D0377"/>
<path fill-rule="evenodd" clip-rule="evenodd" d="M195.517 313.003C266.022 313.003 323.532 259.477 323.532 193.851C323.532 128.225 266.022 74.6998 195.517 74.6998C125.006 74.6998 67.498 128.225 67.498 193.851C67.498 259.477 125.006 313.003 195.517 313.003Z" fill="#C745BD"/>
<path fill-rule="evenodd" clip-rule="evenodd" d="M288.796 112.262C310.328 133.58 323.528 162.282 323.528 193.851C323.528 259.657 266.213 313.003 195.513 313.003C145.224 313.003 101.715 286.009 80.7808 246.745C104.132 269.862 137.283 284.307 174.066 284.307C244.764 284.307 302.081 230.961 302.081 165.154C302.081 146.156 297.295 128.199 288.796 112.262Z" fill="#A61B90"/>
<path fill-rule="evenodd" clip-rule="evenodd" d="M168.03 87.8C205.052 87.8 227.265 115.73 217.656 150.184C208.045 184.637 170.246 212.569 133.231 212.569C96.215 212.569 73.9965 184.637 83.6054 150.184C93.2162 115.73 131.015 87.8 168.03 87.8Z" fill="#DF60D5"/>
<path fill-rule="evenodd" clip-rule="evenodd" d="M99.208 42.1305C112.78 35.0665 129.929 39.5787 137.519 52.2091C141.342 58.5691 142.009 65.7739 139.996 72.2607C137.345 80.8223 138.411 89.0513 143.036 96.8527L151.775 111.597C155.695 118.21 138.954 126.777 135.102 120.274L126.365 105.532C121.738 97.7291 114.667 92.6255 105.442 90.248C98.4517 88.4477 92.2046 84.1466 88.3814 77.7866C80.7919 65.158 85.6398 49.1945 99.208 42.1305Z" fill="#8D0377"/>
<path fill-rule="evenodd" clip-rule="evenodd" d="M382.781 167.911C384.704 182.27 373.754 195.361 358.329 197.153C350.562 198.056 343.137 195.917 337.434 191.743C329.917 186.231 321.323 184.056 311.816 185.107L293.848 187.094C285.793 187.984 283.562 170.326 291.485 169.451L309.453 167.464C318.96 166.412 326.698 162.236 332.537 155.175C336.962 149.824 343.594 146.054 351.364 145.153C366.792 143.363 380.856 153.553 382.781 167.911Z" fill="#8D0377"/>
<path fill-rule="evenodd" clip-rule="evenodd" d="M188.547 369.951C173.026 369.077 161.209 356.659 162.146 342.214C162.619 334.941 166.238 328.542 171.695 324.093C178.895 318.219 182.771 310.757 183.402 301.87L184.603 285.065C185.142 277.53 204.199 278.73 203.67 286.139L202.473 302.94C201.837 311.833 204.829 319.683 211.214 326.32C216.056 331.349 218.819 338.109 218.346 345.382C217.408 359.827 204.063 370.826 188.547 369.951Z" fill="#8D0377"/>
<path fill-rule="evenodd" clip-rule="evenodd" d="M8.06353 218.626C6.24082 204.256 17.2811 191.231 32.7211 189.538C40.496 188.684 47.9022 190.868 53.5745 195.078C61.0563 200.636 69.6347 202.865 79.1472 201.874L97.1266 199.997C105.191 199.157 107.291 216.828 99.3634 217.655L81.3859 219.531C71.8715 220.522 64.1005 224.649 58.2126 231.674C53.7485 237.001 47.091 240.726 39.3162 241.578C23.8761 243.275 9.88435 232.997 8.06353 218.626Z" fill="#8D0377"/>
<path fill-rule="evenodd" clip-rule="evenodd" d="M257.02 78.3146C270.836 84.9439 276.266 100.745 269.145 113.606C265.557 120.084 259.47 124.581 252.55 126.601C243.416 129.269 236.633 134.643 232.2 142.538L230.243 146.019C226.484 152.712 209.567 144.453 213.263 137.873L215.22 134.392C219.652 126.497 220.322 118.191 217.355 109.717C215.111 103.299 215.512 96.0748 219.098 89.6004C226.223 76.736 243.198 71.6853 257.02 78.3146Z" fill="#8D0377"/>
<path fill-rule="evenodd" clip-rule="evenodd" d="M284.602 292.594C272.539 301.724 254.809 300.021 245 288.793C240.063 283.138 238.076 276.148 238.861 269.435C239.893 260.577 237.323 252.641 231.328 245.698L228.683 242.632C223.6 236.746 238.509 225.631 243.504 231.417L246.148 234.481C252.147 241.425 260.051 245.323 269.576 246.189C276.799 246.844 283.751 250.082 288.688 255.736C298.492 266.966 296.667 283.466 284.602 292.594Z" fill="#8D0377"/>
<path fill-rule="evenodd" clip-rule="evenodd" d="M113.268 297.613C100.904 288.839 98.5294 272.398 107.953 260.891C112.699 255.097 119.538 251.659 126.734 250.794C136.226 249.651 143.914 245.464 149.76 238.412L152.341 235.304C157.297 229.323 172.402 240.207 167.531 246.083L164.95 249.191C159.1 256.246 156.884 264.317 158.214 273.139C159.221 279.827 157.471 286.871 152.723 292.666C143.294 304.174 125.632 306.388 113.268 297.613Z" fill="#8D0377"/>
<path fill-rule="evenodd" clip-rule="evenodd" d="M175.187 212.807C190.504 212.807 202.999 201.176 202.999 186.919C202.999 172.658 190.504 161.029 175.187 161.029C159.864 161.029 147.37 172.658 147.37 186.919C147.37 201.176 159.864 212.807 175.187 212.807Z" fill="#8D0377"/>
<path fill-rule="evenodd" clip-rule="evenodd" d="M258.795 253.513C250.654 254.842 244.051 260.878 244.051 266.992C244.051 273.107 250.654 276.988 258.795 275.659C266.941 274.33 273.54 268.296 273.54 262.179C273.54 256.065 266.941 252.185 258.795 253.513ZM182.053 321.198C173.913 322.529 167.31 328.563 167.31 334.679C167.31 340.794 173.913 344.673 182.053 343.344C190.196 342.016 196.799 335.981 196.799 329.866C196.799 323.75 190.196 319.868 182.053 321.198ZM122.404 255.697C114.259 257.026 107.658 263.06 107.658 269.176C107.658 275.29 114.259 279.172 122.404 277.841C130.546 276.513 137.145 270.476 137.145 264.363C137.145 258.247 130.546 254.367 122.404 255.697ZM42.6439 269.732C34.5003 271.062 27.8977 277.099 27.8977 283.211C27.8977 289.328 34.5003 293.208 42.6439 291.878C50.7874 290.549 57.3881 284.513 57.3881 278.399C57.3881 272.284 50.7874 268.402 42.6439 269.732ZM28.2343 194.561C20.0907 195.887 13.4881 201.925 13.4881 208.039C13.4881 214.155 20.0907 218.035 28.2343 216.706C36.3778 215.376 42.9785 209.341 42.9785 203.226C42.9785 197.112 36.3778 193.23 28.2343 194.561ZM21.4161 110.097C13.2745 111.428 6.67188 117.462 6.67188 123.577C6.67188 129.691 13.2745 133.572 21.4161 132.245C29.5597 130.914 36.1623 124.88 36.1623 118.764C36.1623 112.649 29.5597 108.768 21.4161 110.097ZM106.318 43.5946C98.1741 44.9233 91.5752 50.9578 91.5752 57.0715C91.5752 63.1887 98.1741 67.0674 106.318 65.7387C114.463 64.41 121.068 58.3755 121.068 52.26C121.068 46.1429 114.463 42.2625 106.318 43.5946ZM168.316 165.553C160.171 166.882 153.572 172.918 153.572 179.032C153.572 185.147 160.171 189.028 168.316 187.699C176.46 186.368 183.064 180.334 183.064 174.219C183.064 168.103 176.46 164.224 168.316 165.553ZM332.021 71.1995C323.878 72.5299 317.277 78.5626 317.277 84.678C317.277 90.7935 323.878 94.6721 332.021 93.3434C340.167 92.0148 346.767 85.9803 346.767 79.8666C346.767 73.7495 340.167 69.8708 332.021 71.1995ZM237.689 77.8376C229.545 79.1663 222.941 85.2007 222.941 91.3162C222.941 97.4316 229.545 101.312 237.689 99.9816C245.83 98.6529 252.431 92.6184 252.431 86.503C252.431 80.3875 245.83 76.5071 237.689 77.8376ZM188.09 3.60056C179.946 4.92923 173.344 10.9655 173.344 17.0791C173.344 23.1946 179.946 27.075 188.09 25.7481C196.232 24.4177 202.832 18.3832 202.832 12.2678C202.832 6.15234 196.232 2.27188 188.09 3.60056ZM341.239 262.714C333.095 264.042 326.493 270.079 326.493 276.194C326.493 282.31 333.095 286.19 341.239 284.86C349.379 283.533 355.981 277.496 355.981 271.383C355.981 265.265 349.379 261.387 341.239 262.714ZM349.95 148.71C341.808 150.04 335.203 156.073 335.203 162.19C335.203 168.304 341.808 172.186 349.95 170.856C358.093 169.527 364.696 163.491 364.696 157.375C364.696 151.261 358.093 147.381 349.95 148.71Z" fill="#C140B8"/>
</g>
<defs>
<clipPath id="clip0">
<rect width="383" height="370" fill="white"/>
</clipPath>
</defs>
</svg>
